<svg width="1074" height="792" viewBox="0 0 1074 792" fill="none" xmlns="http://www.w3.org/2000/svg">
<g clip-path="url(#clip0)">
<path d="M718.91 195.278L682.25 81.2262L669.07 83.3696L657.27 84.9879C657.57 80.701 658.09 65.3112 650.77 57.2411C650.06 54.4761 648.19 51.3359 644.59 47.7993C627.05 30.566 623.4 65.8149 623.4 65.8149C623.4 65.8149 619.4 73.2526 613.89 83.6483L611 83.0588L610.18 90.7323C597.98 113.849 581.77 145.133 581.77 148.069C581.77 152.774 579.58 159.033 579.58 159.033C579.58 159.033 567.16 180.96 562.77 191.935C560.214 198.409 556.474 204.269 551.77 209.168C551.77 209.168 550.71 210.036 548.97 211.311C549.081 209.237 549.416 207.183 549.97 205.192C551.57 199.587 555.29 194.785 556.28 189.02C556.512 187.638 556.599 186.232 556.54 184.829C556.77 178.067 553.7 171.411 552.42 164.649C550.93 156.814 551.73 148.187 547.83 141.382C544.83 136.184 539.51 132.947 533.98 131.458C528.9 130.097 523.9 130.579 518.78 130C514.08 129.464 509.59 127.235 504.89 126.41C502.379 125.825 499.781 125.825 497.27 126.41C489.32 128.757 486.83 139.496 480.69 145.401C478.48 147.544 475.77 149.023 473.77 151.37C470.86 154.789 469.85 159.558 470 164.231C469.962 165.797 470.049 167.364 470.26 168.914C471.02 174.519 473.04 179.824 474.26 185.322C475.182 189.391 475.682 193.557 475.75 197.743C475.75 198.687 475.75 199.63 475.67 200.562C475.706 202.45 475.238 204.309 474.32 205.921C473.21 207.56 471.38 208.353 469.75 209.404C464.422 204.872 460.423 198.793 458.23 191.892C458.23 191.892 457.96 192.256 457.5 192.964V191.892C457.5 191.892 447.5 176.159 445.98 163.309L449.46 163.695L457.46 43.073L437.03 39.8578C436.46 33.6312 434.91 24.5966 430.8 18.0055C434.23 10.7607 435.96 0.95447 420.92 -0.0207934C403.32 -1.16753 404.4 13.5257 406.27 21.5636C405.422 25.9497 405.086 30.4317 405.27 34.9065L387.27 32.0986L387.17 33.6633H382.89L369.79 156.718L380.95 156.118L421.85 160.683C425.12 192.546 430.26 231.921 436.36 241.202C436.563 241.515 436.787 241.812 437.03 242.091V298.474C437.03 298.474 436.3 371.351 423.87 383.065C431.495 380.157 439.56 378.802 447.65 379.067C447.51 379.55 447.37 380.064 447.23 380.611C445.411 387.804 444.143 395.145 443.44 402.56C443.267 404.196 443.11 405.903 442.97 407.682C441.825 424.007 442.036 440.408 443.6 456.692C448.72 514.651 456.76 556.169 456.76 556.169L459 589.864C459 589.864 456.81 647.04 462.65 665.838C464.851 668.011 467.38 669.769 470.13 671.036C470.18 671.572 470.24 672.107 470.29 672.675C470.34 673.243 470.42 674.122 470.49 674.872C467.87 676.148 462.98 681.206 461.92 701.076C461.92 701.076 463.38 715.962 459.73 723.003C456.08 730.044 458.27 750.418 469.23 752.765C476.235 754.146 483.415 754.146 490.42 752.765C490.42 752.765 495.54 752.765 491.88 733.185L491.24 728.169C491.16 718.47 491.54 708.085 493.34 704.988C496.99 698.718 491.88 692.459 491.88 692.459C491.88 692.459 491.52 692.674 490.93 692.963C489.99 687.551 488.76 678.763 489.2 672.054C489.2 671.486 489.29 670.982 489.35 670.393C491.58 669.144 493.659 667.607 495.54 665.816V591.428C495.54 591.428 494.81 477.076 502.85 474.718C502.85 474.718 506.5 516.226 505.04 536.599C503.58 556.973 507.23 578.9 507.23 578.9L508.69 661.926C508.69 661.926 510.09 662.644 512.35 663.491L512.2 665.002C511.31 674.229 509.88 688.162 508.58 696.693C507.703 697.066 506.922 697.66 506.304 698.425C505.686 699.19 505.249 700.103 505.03 701.087C502.84 708.921 504.3 728.501 499.91 733.988C497.32 737.204 494.22 743.752 495.74 748.382C494.79 752.443 495.21 758.788 506.49 759.838C523.3 761.403 530.61 752.004 530.61 752.004C530.61 752.004 532.8 748.092 530.61 741.04C528.42 733.988 531.34 721.46 531.34 721.46C531.34 721.46 532.91 710.829 530.34 709.435C530.12 708.171 529.92 707.367 529.92 707.367C529.955 704.958 529.128 702.627 527.61 700.851C527.55 692.652 527.86 677.487 530.55 667.499C530.71 666.931 530.87 666.427 531.04 665.838C533.206 665.437 535.295 664.651 537.22 663.512C537.22 663.512 536.49 645.497 541.61 632.968C546.73 620.44 543.8 570.305 543.8 570.305C543.8 570.305 541.61 557.133 544.7 546.459C548.24 534.63 550.895 522.517 552.64 510.235L556.95 477.88C556.95 477.88 568.3 438.494 553.35 398.069C552.74 396.397 552.07 394.725 551.35 393.053C550.11 390.149 548.73 387.234 547.19 384.34C546.95 383.89 546.69 383.429 546.44 382.979C548.01 382.561 548.9 382.315 548.9 382.315C548.9 382.315 529.17 333.016 541.59 307.905C541.59 307.905 548.59 300.403 549.59 292.162C550.83 281.262 552.18 270.374 554.4 259.657L554.79 257.77C554.79 257.77 554.85 257.406 554.95 256.752C555.23 256.559 555.5 256.356 555.77 256.141C576.83 239.658 594.99 170.833 594.99 170.833L600.84 159.044L603.62 152.742L597.92 206.039L642.5 217.827L671 215.48L670.92 208.911L692.64 207.1L718.91 195.278ZM436.31 39.8793L428.39 38.6361C427 30.9733 426.06 25.9469 426.06 25.9469C427.72 23.7477 429.189 21.3909 430.45 18.9058C434.28 25.186 435.75 33.7598 436.31 39.8364V39.8793ZM406.73 23.4284C407.28 25.4432 407.78 26.74 407.78 26.74L408.78 35.5817L406.08 35.1637C405.926 31.2238 406.147 27.2774 406.74 23.3855L406.73 23.4284ZM656.53 85.1701L645.81 86.6491C647.32 81.8907 649.19 74.0885 648.1 67.0259C649.149 65.9963 649.96 64.7199 650.47 63.2973C650.98 61.8746 651.175 60.3445 651.04 58.8273C657.41 66.983 656.81 81.3869 656.53 85.138V85.1701ZM638.73 72.9418C641.925 71.797 644.888 70.0112 647.46 67.6796C648.38 74.6137 646.46 82.2336 645 86.7562L635 88.128L632.24 87.56L638.73 72.9418Z" fill="url(#paint0_linear)"/>
<path d="M717 197.303L690.91 208.974L660.6 95.7045L667.71 86.6592L680.74 84.4943L717 197.303Z" fill="#FF6F5C"/>
<path opacity="0.2" d="M717 197.303L690.91 208.974L660.6 95.7045L667.71 86.6592L680.74 84.4943L717 197.303Z" fill="white"/>
<path d="M667.71 86.6592L622.43 92.8859L645.64 212.747L690.91 208.974L667.71 86.6592Z" fill="#FF6F5C"/>
<path opacity="0.07" d="M667.71 86.6592L622.43 92.8859L645.64 212.747L690.91 208.974L667.71 86.6592Z" fill="white"/>
<path d="M655.94 89.3599L655.22 89.2634C655.22 88.974 658.22 60.6807 641.65 57.1119L641.79 56.351C659.07 60.0698 656 89.0705 655.94 89.3599Z" fill="#535461"/>
<path d="M538.32 171.947H488.44V250.193H538.32V171.947Z" fill="#774E55"/>
<path opacity="0.2" d="M538.32 171.947H488.44V250.193H538.32V171.947Z" fill="black"/>
<path d="M669.51 217.259L641.32 219.584L645.66 101.835L655.05 95.6402L668.06 97.9658L669.51 217.259Z" fill="#FF6F5C"/>
<path opacity="0.2" d="M669.51 217.259L641.32 219.584L645.66 101.835L655.05 95.6402L668.06 97.9658L669.51 217.259Z" fill="black"/>
<path d="M655.05 95.6402L610.24 86.3376L597.23 207.967L641.32 219.584L655.05 95.6402Z" fill="#FF6F5C"/>
<path d="M391.22 37.5423H384.71L371.7 159.161L400.61 157.618L391.22 37.5423Z" fill="#FF6F5C"/>
<path opacity="0.2" d="M391.22 37.5423H384.71L371.7 159.161L400.61 157.618L391.22 37.5423Z" fill="black"/>
<path d="M389.05 35.9883L381.1 158.389L450.49 166.138L458.44 46.8341L389.05 35.9883Z" fill="#FF6F5C"/>
<path d="M472.9 671.228C472.9 671.228 464.23 670.456 462.78 697.571C462.78 697.571 464.23 712.286 460.61 719.262C456.99 726.239 459.16 746.377 470.01 748.703C476.952 750.074 484.068 750.074 491.01 748.703C491.01 748.703 496.07 748.703 492.46 729.337L485.23 672.782L472.9 671.228Z" fill="#5C3D53"/>
<path opacity="0.05" d="M472.9 671.228C472.9 671.228 464.23 670.456 462.78 697.571C462.78 697.571 464.23 712.286 460.61 719.262C456.99 726.239 459.16 746.377 470.01 748.703C476.952 750.074 484.068 750.074 491.01 748.703C491.01 748.703 496.07 748.703 492.46 729.337L485.23 672.782L472.9 671.228Z" fill="black"/>
<path d="M518.35 223.882C517.73 235.414 519.88 242.101 519.88 242.101L501.09 247.524C501.09 247.524 470.01 252.175 482.3 238.95C486.55 234.396 488.64 226.583 489.55 218.33C490.119 212.694 490.297 207.019 490.08 201.354C489.913 196.047 489.486 190.752 488.8 185.493C488.8 185.493 534.34 168.453 524.22 196.339C522.376 201.383 520.922 206.58 519.87 211.879C519.088 215.834 518.58 219.846 518.35 223.882Z" fill="#F8BDC5"/>
<path opacity="0.1" d="M524.22 196.35C522.376 201.394 520.922 206.591 519.87 211.889C514.48 213.117 508.882 212.79 503.648 210.941C498.415 209.092 493.733 205.787 490.08 201.365C489.913 196.058 489.486 190.763 488.8 185.504C488.8 185.504 534.34 168.463 524.22 196.35Z" fill="black"/>
<path d="M513.38 211.064C530.545 211.064 544.46 196.151 544.46 177.755C544.46 159.359 530.545 144.446 513.38 144.446C496.215 144.446 482.3 159.359 482.3 177.755C482.3 196.151 496.215 211.064 513.38 211.064Z" fill="#F8BDC5"/>
<path d="M458.44 194.024V204.098L442.54 248.253L438.2 243.602C437.961 243.326 437.74 243.032 437.54 242.723C427.04 226.733 419.4 120.429 419.4 120.429L409.29 30.544C409.29 30.544 398.45 2.67929 422.29 4.20113C446.13 5.72297 427.35 29.7616 427.35 29.7616C427.35 29.7616 443.25 114.974 441.08 118.071C438.91 121.168 441.08 130.471 441.08 130.471C441.08 130.471 447.59 148.294 446.86 161.454C446.13 174.615 458.44 194.024 458.44 194.024Z" fill="#F8BDC5"/>
<path d="M637.7 76.2742L600.11 161.487L594.33 173.083C594.33 173.083 576.33 241.158 555.54 257.459C554.345 258.415 553.05 259.217 551.68 259.849L547.34 222.66L551.34 211.857L551.64 211.032C556.278 206.184 559.964 200.39 562.48 193.992C566.82 183.146 579.11 161.454 579.11 161.454C579.11 161.454 581.28 155.26 581.28 150.609C581.28 145.957 622.48 69.2652 622.48 69.2652C622.48 69.2652 626.09 34.4022 643.48 51.4425C660.87 68.4828 637.7 76.2742 637.7 76.2742Z" fill="#F8BDC5"/>
<path d="M492.41 694.463C492.41 694.463 467.83 705.309 470.72 695.235C472.48 689.126 471.83 677.583 471.05 669.513C470.55 664.251 469.99 660.414 469.99 660.414L490.99 662.74C490.256 664.703 489.847 666.789 489.78 668.902C489.09 679.18 492.41 694.463 492.41 694.463Z" fill="#F8BDC5"/>
<path d="M530.63 664.326C526.84 678.43 527.83 702.994 527.83 702.994C527.83 702.994 505.42 706.091 507.59 699.896C509.1 695.61 511.31 674.368 512.51 661.883C513.04 656.428 513.37 652.644 513.37 652.644L533.61 657.296C532.232 659.429 531.223 661.81 530.63 664.326Z" fill="#F8BDC5"/>
<path opacity="0.1" d="M470 660.382L491 662.708C490.266 664.671 489.857 666.756 489.79 668.87C486.919 670.481 483.745 671.372 480.505 671.478C477.266 671.584 474.047 670.901 471.09 669.481C470.56 664.208 470 660.382 470 660.382Z" fill="black"/>
<path opacity="0.1" d="M533.62 657.285C532.234 659.42 531.218 661.805 530.62 664.326C523.79 665.505 516.62 663.437 512.51 661.883C513.04 656.428 513.37 652.644 513.37 652.644L533.62 657.285Z" fill="black"/>
<path d="M556.75 476.775L552.49 508.777C550.762 520.924 548.133 532.905 544.63 544.604C541.57 555.161 543.74 568.182 543.74 568.182C543.74 568.182 546.63 617.76 541.57 630.16C536.51 642.56 537.23 660.372 537.23 660.372C525.66 667.348 509.04 658.818 509.04 658.818L507.59 576.702C507.59 576.702 503.98 555.011 505.42 534.905C506.86 514.8 503.25 473.71 503.25 473.71C495.25 476.036 496.02 589.134 496.02 589.134V662.729C478.67 678.998 463.49 662.729 463.49 662.729C457.71 644.135 459.88 587.58 459.88 587.58L457.71 554.271C457.71 554.271 449.71 513.214 444.71 455.888C443.164 439.781 442.956 423.56 444.09 407.414C444.23 405.656 444.383 403.966 444.55 402.345C445.243 395.013 446.494 387.755 448.29 380.642C448.863 378.297 449.599 376.001 450.49 373.773L528.16 377.641L532.74 377.867L543.74 378.413C544.94 380.353 546.07 382.325 547.12 384.297C548.64 387.158 550.01 390.041 551.23 392.871C551.93 394.521 552.59 396.182 553.23 397.833C568 437.797 556.75 476.775 556.75 476.775Z" fill="#EBEBEB"/>
<path opacity="0.1" d="M471.45 381.5C471.45 381.5 468.05 417.938 444.08 407.392C444.22 405.635 444.373 403.945 444.54 402.323C450.18 403.963 465.79 406.224 466.38 381.489L471.45 381.5Z" fill="black"/>
<path opacity="0.1" d="M553.19 397.843C536.59 404.199 530.33 387.276 528.19 377.62L532.77 377.845C535.26 393.031 545.2 393.921 551.25 392.849C551.93 394.542 552.58 396.204 553.19 397.843Z" fill="black"/>
<path d="M479.34 690.348C475.65 689.726 470.01 687.55 471.78 679.952C471.78 679.952 464.95 677.423 465.67 707.634C465.67 707.634 464.95 722.349 463.5 725.457C462.05 728.565 463.5 747.149 478.68 745.595C478.68 745.595 489.52 749.463 492.41 743.269C492.41 743.269 490.24 707.634 493.86 701.472C497.48 695.31 492.41 689.072 492.41 689.072C492.41 689.072 487.29 692.116 483.61 691.216C482.21 690.798 480.77 690.594 479.34 690.348Z" fill="#5C3D53"/>
<path d="M497.47 740.943C497.47 740.943 490.24 754.115 506.87 755.658C523.5 757.201 530.72 747.91 530.72 747.91C530.72 747.91 532.89 744.041 530.72 737.064C528.55 730.087 531.44 717.698 531.44 717.698C531.44 717.698 533.61 702.983 528.55 706.08C523.49 709.178 497.47 740.943 497.47 740.943Z" fill="#5C3D53"/>
<path opacity="0.05" d="M497.47 740.943C497.47 740.943 490.24 754.115 506.87 755.658C523.5 757.201 530.72 747.91 530.72 747.91C530.72 747.91 532.89 744.041 530.72 737.064C528.55 730.087 531.44 717.698 531.44 717.698C531.44 717.698 533.61 702.983 528.55 706.08C523.49 709.178 497.47 740.943 497.47 740.943Z" fill="black"/>
<path d="M516.27 693.691C516.27 693.691 507.6 689.822 505.43 697.56C503.26 705.298 504.71 724.675 500.37 730.098C496.03 735.52 490.25 750.235 507.6 749.464C524.95 748.692 528.6 742.487 528.6 742.487C528.6 742.487 527.88 723.121 530.05 717.698C532.22 712.275 530.05 703.765 530.05 703.765C530.05 703.765 530.72 692.866 516.27 693.691Z" fill="#5C3D53"/>
<path opacity="0.2" d="M407.84 48.3881C408.641 48.3881 409.29 47.6924 409.29 46.8341C409.29 45.9759 408.641 45.2801 407.84 45.2801C407.039 45.2801 406.39 45.9759 406.39 46.8341C406.39 47.6924 407.039 48.3881 407.84 48.3881Z" fill="black"/>
<path opacity="0.2" d="M438.2 52.257C439.001 52.257 439.65 51.5613 439.65 50.703C439.65 49.8448 439.001 49.149 438.2 49.149C437.399 49.149 436.75 49.8448 436.75 50.703C436.75 51.5613 437.399 52.257 438.2 52.257Z" fill="black"/>
<path d="M438.56 50.7137H437.84C437.84 50.3815 438.35 17.7048 420.84 14.6933C417.39 14.1038 414.57 14.9398 412.46 17.1797C405.23 24.8639 408.22 46.5662 408.25 46.7805L407.54 46.8984C407.41 45.9875 404.47 24.5852 411.96 16.6331C414.24 14.2003 417.28 13.2893 420.96 13.9216C439.08 17.0296 438.57 50.3815 438.56 50.7137Z" fill="#535461"/>
<path d="M643.09 94.2576L642.44 93.9254C642.55 93.6682 653.69 67.8076 638.97 58.7945L639.33 58.1193C654.62 67.4861 643.21 93.9897 643.09 94.2576Z" fill="#535461"/>
<path opacity="0.1" d="M519.88 242.058L501.09 247.481C501.09 247.481 470.01 252.133 482.3 238.908C486.55 234.353 488.64 226.54 489.55 218.288C494.46 226.54 500.37 224.193 500.37 224.193L518.29 223.818H518.36C517.73 235.414 519.88 242.058 519.88 242.058Z" fill="black"/>
<path opacity="0.1" d="M555.55 257.48C554.355 258.437 553.06 259.239 551.69 259.87L547.35 222.682L551.35 211.879L552.35 211.054C561.38 213.808 556.72 249.432 555.55 257.48Z" fill="black"/>
<path opacity="0.1" d="M458.44 194.024V204.098L442.54 248.253L438.2 243.602C437.961 243.326 437.74 243.032 437.54 242.723C439.42 219.702 458.44 194.024 458.44 194.024Z" fill="black"/>
<path opacity="0.1" d="M547.11 384.275C537 386.987 484.22 400.276 468.56 387.694C462.38 382.732 455.1 380.91 448.29 380.621C448.863 378.276 449.599 375.979 450.49 373.751L528.16 377.62L532.74 377.845L543.74 378.392C544.94 380.342 546.06 382.303 547.11 384.275Z" fill="black"/>
<path d="M411.1 10.8136C411.1 10.8136 421.94 30.1796 429.17 10.8136H411.1Z" fill="#F8BDC5"/>
<path d="M634.09 50.703C634.09 50.703 629.75 73.9486 647.09 63.1028L634.09 50.703Z" fill="#F8BDC5"/>
<g opacity="0.1">
<path opacity="0.1" d="M499.89 481.352C499.54 476.636 499.28 473.689 499.28 473.689C491.28 476.015 492.05 589.113 492.05 589.113V662.708C486.97 667.466 482.05 669.438 477.7 669.856C482.92 670.349 489.14 668.785 495.7 662.708V589.113C495.7 589.113 495.14 507.159 499.89 481.352Z" fill="black"/>
<path opacity="0.1" d="M552.83 397.843C552.22 396.193 551.57 394.532 550.83 392.881C549.61 390.009 548.24 387.126 546.72 384.308C545.72 382.336 544.54 380.374 543.34 378.424L532.34 377.877L527.76 377.652L450.09 373.783L450.02 373.955L524.15 377.652L528.73 377.877L539.73 378.424C540.93 380.364 542.06 382.336 543.11 384.308C544.63 387.169 546 390.052 547.22 392.881C547.92 394.532 548.58 396.193 549.22 397.843C564 437.818 552.78 476.775 552.78 476.775L548.52 508.777C546.792 520.924 544.163 532.905 540.66 544.604C537.6 555.161 539.77 568.182 539.77 568.182C539.77 568.182 542.66 617.76 537.6 630.16C532.54 642.56 533.26 660.371 533.26 660.371C530.468 661.987 527.37 662.903 524.2 663.051C528.575 663.473 532.972 662.543 536.87 660.371C536.87 660.371 536.15 642.549 541.21 630.16C546.27 617.771 543.38 568.182 543.38 568.182C543.38 568.182 541.21 555.15 544.27 544.604C547.773 532.905 550.402 520.924 552.13 508.777L556.39 476.775C556.39 476.775 567.61 437.797 552.83 397.843Z" fill="black"/>
</g>
<path d="M518.29 225.404C528.29 230.452 551.69 211.064 551.69 211.064C561.81 214.162 554.58 259.099 554.58 259.099L554.19 260.963C551.99 271.563 550.66 282.334 549.43 293.115C548.5 301.249 541.57 308.687 541.57 308.687C529.28 333.476 548.8 382.282 548.8 382.282C548.8 382.282 485.91 400.105 468.57 386.151C451.23 372.197 425.2 383.054 425.2 383.054C437.49 371.436 438.2 299.385 438.2 299.385V243.655C439.65 220.41 459.2 194.078 459.2 194.078C467.2 218.095 489.43 219.681 489.43 219.681C494.36 228.255 500.43 225.843 500.43 225.843L518.29 225.404Z" fill="#EB6475"/>
<path opacity="0.1" d="M505.29 130.814C502.809 130.236 500.241 130.236 497.76 130.814C489.9 133.14 487.43 143.76 481.36 149.59C479.18 151.734 476.49 153.17 474.51 155.496C470.99 159.632 470.28 165.763 471.03 171.304C471.78 176.844 473.78 182.096 475.03 187.529C476.264 192.968 476.733 198.575 476.42 204.162C476.448 206.017 475.983 207.842 475.08 209.425C473.63 211.568 470.96 212.243 469.08 213.958C463.34 219.252 468.08 230.237 463.87 237C462.06 239.926 458.67 241.855 457.98 245.284C457.49 247.717 458.53 250.171 459.55 252.411C462.23 258.306 465.01 264.361 469.55 268.755C474.09 273.149 479.7 275.357 485.28 277.597C486.97 278.272 489.09 278.861 490.38 277.522C491.97 275.85 490.77 273.02 489.67 270.952C487.93 267.737 486.57 263.857 487.59 260.235C488.61 256.612 491.88 254.212 494.08 251.189C499.75 243.366 497.89 232.134 495.08 222.703C493.89 218.727 492.55 214.494 493.56 210.453C493.99 208.717 494.84 207.142 495.38 205.438C497.78 197.85 493.75 189.523 494.93 181.613C495.544 178.525 496.553 175.542 497.93 172.75L504.28 158.121C504.919 156.361 505.874 154.751 507.09 153.384C509.063 151.684 511.565 150.849 514.09 151.048C516.664 151.11 519.2 151.731 521.543 152.876C523.886 154.02 525.987 155.662 527.72 157.703C534.52 165.806 534.09 178.066 533.27 188.869L532.68 196.671C532.25 202.287 531.68 208.278 528.38 212.65C525.81 216.037 521.66 218.341 520.6 222.564C519.68 226.197 521.41 230.141 520.5 233.774C519.14 239.208 512.88 241.169 509.57 245.563C508.178 247.473 507.355 249.788 507.209 252.206C507.062 254.624 507.599 257.034 508.75 259.12C510.01 261.264 512.02 263.407 511.75 265.926C511.52 267.951 509.82 269.591 509.83 271.627C509.911 272.538 510.248 273.402 510.796 274.104C511.344 274.806 512.078 275.313 512.9 275.56C514.555 276.02 516.281 276.107 517.97 275.818L535.9 274.081C537.023 274.077 538.124 273.751 539.09 273.138C540.34 272.174 540.75 270.395 540.92 268.755C541.64 261.917 539.92 254.447 543.11 248.467C544.11 246.549 545.58 244.952 546.69 243.109C552.81 232.82 546.64 218.866 549.97 207.195C551.55 201.655 555.23 196.896 556.21 191.205C557.51 183.618 553.82 176.201 552.39 168.699C550.92 160.951 551.71 152.42 547.85 145.679C544.9 140.534 539.62 137.33 534.16 135.862C529.16 134.511 524.16 134.994 519.16 134.415C514.38 133.826 509.94 131.618 505.29 130.814Z" fill="black"/>
<path d="M505.29 129.26C502.809 128.682 500.241 128.682 497.76 129.26C489.9 131.586 487.43 142.206 481.36 148.036C479.18 150.18 476.49 151.616 474.51 153.942C470.99 158.078 470.28 164.209 471.03 169.749C471.78 175.29 473.78 180.542 475.03 185.975C476.264 191.414 476.733 197.021 476.42 202.608C476.448 204.463 475.983 206.288 475.08 207.871C473.63 210.014 470.96 210.689 469.08 212.404C463.34 217.698 468.08 228.683 463.87 235.446C462.06 238.372 458.67 240.301 457.98 243.73C457.49 246.163 458.53 248.617 459.55 250.857C462.23 256.752 465.01 262.807 469.55 267.201C474.09 271.595 479.7 273.803 485.28 276.043C486.97 276.718 489.09 277.307 490.38 275.967C491.97 274.296 490.77 271.466 489.67 269.398C487.93 266.183 486.57 262.303 487.59 258.681C488.61 255.058 491.88 252.658 494.08 249.635C499.75 241.812 497.89 230.58 495.08 221.149C493.89 217.173 492.55 212.94 493.56 208.899C493.99 207.163 494.84 205.588 495.38 203.884C497.78 196.296 493.75 187.969 494.93 180.059C495.544 176.971 496.553 173.988 497.93 171.196L504.28 156.567C504.919 154.807 505.874 153.197 507.09 151.83C509.063 150.13 511.565 149.295 514.09 149.494C516.664 149.556 519.2 150.177 521.543 151.322C523.886 152.466 525.987 154.108 527.72 156.149C534.52 164.252 534.09 176.512 533.27 187.315L532.68 195.117C532.25 200.733 531.68 206.724 528.38 211.096C525.81 214.483 521.66 216.787 520.6 221.01C519.68 224.643 521.41 228.587 520.5 232.22C519.14 237.654 512.88 239.615 509.57 244.009C508.178 245.919 507.355 248.234 507.209 250.652C507.062 253.07 507.599 255.48 508.75 257.566C510.01 259.71 512.02 261.853 511.75 264.372C511.52 266.397 509.82 268.037 509.83 270.073C509.911 270.984 510.248 271.848 510.796 272.55C511.344 273.252 512.078 273.759 512.9 274.006C514.555 274.466 516.281 274.553 517.97 274.263L535.9 272.527C537.023 272.523 538.124 272.197 539.09 271.584C540.34 270.62 540.75 268.841 540.92 267.201C541.64 260.363 539.92 252.893 543.11 246.913C544.11 244.995 545.58 243.398 546.69 241.555C552.81 231.266 546.64 217.312 549.97 205.641C551.55 200.101 555.23 195.342 556.21 189.651C557.51 182.064 553.82 174.647 552.39 167.145C550.92 159.397 551.71 150.866 547.85 144.125C544.9 138.98 539.62 135.776 534.16 134.308C529.16 132.957 524.16 133.44 519.16 132.861C514.38 132.282 509.94 130.074 505.29 129.26Z" fill="#774E55"/>
<path opacity="0.1" d="M466.75 306.737C466.75 306.737 481.21 311.388 502.17 301.314H513C513 301.314 513.72 312.159 541.91 307.508" fill="black"/>
<g opacity="0.1">
<path opacity="0.1" d="M945.26 710.967C945.26 710.967 930.78 632.346 960.6 578.46C973.24 555.945 978.725 529.644 976.23 503.504C974.944 491.104 972.601 478.857 969.23 466.916" stroke="#535461" stroke-width="2" stroke-miterlimit="10"/>
<path opacity="0.1" d="M987.85 432.835C987.05 442.213 968.85 467.859 968.85 467.859C968.85 467.859 955.33 439.094 956.14 429.706C956.606 425.269 958.676 421.205 961.905 418.386C965.135 415.566 969.267 414.215 973.415 414.623C977.564 415.032 981.397 417.166 984.094 420.569C986.791 423.971 988.136 428.371 987.84 432.824L987.85 432.835Z" fill="#FF6F5C"/>
<path opacity="0.1" d="M1009.6 487.385C1004.17 494.791 975.9 505.733 975.9 505.733C975.9 505.733 979.14 473.71 984.57 466.305C985.824 464.436 987.419 462.858 989.258 461.667C991.096 460.476 993.14 459.696 995.268 459.374C997.395 459.052 999.561 459.195 1001.64 459.794C1003.71 460.393 1005.65 461.436 1007.34 462.859C1009.03 464.283 1010.43 466.058 1011.46 468.078C1012.49 470.098 1013.13 472.32 1013.34 474.612C1013.55 476.903 1013.32 479.216 1012.67 481.412C1012.03 483.607 1010.97 485.639 1009.57 487.385H1009.6Z" fill="#FF6F5C"/>
<path opacity="0.1" d="M1000.84 576.049C992.66 579.5 963.11 573.648 963.11 573.648C963.11 573.648 980.99 547.755 989.17 544.304C993.082 542.729 997.414 542.864 1001.23 544.682C1005.05 546.5 1008.05 549.854 1009.58 554.021C1011.11 558.188 1011.06 562.833 1009.42 566.954C1007.79 571.075 1004.7 574.342 1000.84 576.049Z" fill="#FF6F5C"/>
<path opacity="0.1" d="M980.11 641.584C972.59 646.471 942.54 646.053 942.54 646.053C942.54 646.053 956.08 617.299 963.6 612.412C965.388 611.206 967.382 610.393 969.466 610.022C971.551 609.65 973.683 609.726 975.739 610.247C977.795 610.767 979.734 611.721 981.443 613.053C983.152 614.385 984.596 616.068 985.692 618.004C986.788 619.94 987.513 622.09 987.825 624.33C988.137 626.569 988.031 628.853 987.511 631.047C986.992 633.242 986.07 635.304 984.799 637.113C983.528 638.922 981.934 640.442 980.11 641.584Z" fill="#FF6F5C"/>
<path opacity="0.1" d="M942.46 504.244C948.18 511.403 976.85 521.048 976.85 521.048C976.85 521.048 972.35 489.197 966.64 482.048C965.291 480.31 963.632 478.876 961.761 477.831C959.891 476.786 957.845 476.149 955.742 475.959C953.64 475.768 951.523 476.028 949.515 476.722C947.507 477.416 945.648 478.53 944.045 480.001C942.443 481.472 941.129 483.27 940.181 485.29C939.232 487.31 938.668 489.511 938.52 491.767C938.373 494.023 938.645 496.287 939.321 498.429C939.998 500.571 941.065 502.547 942.46 504.244Z" fill="#FF6F5C"/>
<path opacity="0.1" d="M919.12 581.214C926.57 586.209 956.63 586.219 956.63 586.219C956.63 586.219 943.45 557.283 935.99 552.278C934.217 551.054 932.235 550.22 930.158 549.825C928.082 549.429 925.953 549.479 923.895 549.973C921.837 550.466 919.891 551.393 918.17 552.699C916.449 554.006 914.987 555.665 913.87 557.582C912.752 559.499 912.001 561.634 911.66 563.865C911.319 566.095 911.395 568.376 911.884 570.575C912.372 572.774 913.264 574.846 914.506 576.673C915.748 578.499 917.316 580.043 919.12 581.214Z" fill="#FF6F5C"/>
<path opacity="0.1" d="M906 659.332C912.56 665.602 942.18 671.067 942.18 671.067C942.18 671.067 933.75 640.148 927.18 633.879C925.635 632.299 923.809 631.069 921.811 630.262C919.812 629.454 917.683 629.086 915.55 629.178C913.416 629.271 911.322 629.822 909.391 630.8C907.46 631.778 905.733 633.162 904.312 634.87C902.89 636.578 901.804 638.575 901.118 640.742C900.432 642.909 900.159 645.202 900.317 647.485C900.474 649.767 901.058 651.992 902.035 654.027C903.011 656.063 904.36 657.867 906 659.332Z" fill="#FF6F5C"/>
</g>
<g opacity="0.1">
<path opacity="0.1" d="M819.63 693.713C819.63 693.713 811.86 651.498 827.86 622.561C834.647 610.47 837.591 596.345 836.25 582.308C835.566 575.651 834.314 569.075 832.51 562.663" stroke="#535461" stroke-width="2" stroke-miterlimit="10"/>
<path opacity="0.1" d="M842.5 544.358C842.07 549.395 832.3 563.167 832.3 563.167C832.3 563.167 825.04 547.723 825.47 542.686C825.795 540.374 826.932 538.282 828.649 536.839C830.366 535.396 832.533 534.711 834.706 534.924C836.879 535.138 838.894 536.234 840.337 537.988C841.78 539.742 842.543 542.021 842.47 544.358H842.5Z" fill="#FF6F5C"/>
<path opacity="0.1" d="M854.17 573.648C851.25 577.624 836.07 583.497 836.07 583.497C836.07 583.497 837.81 566.35 840.73 562.331C842.155 560.502 844.189 559.341 846.4 559.092C848.611 558.844 850.826 559.528 852.574 561C854.322 562.472 855.467 564.616 855.765 566.977C856.062 569.339 855.491 571.731 854.17 573.648Z" fill="#FF6F5C"/>
<path opacity="0.1" d="M849.47 621.275C845.08 623.129 829.21 619.989 829.21 619.989C829.21 619.989 838.81 606.057 843.21 604.235C845.301 603.431 847.601 603.532 849.625 604.514C851.648 605.497 853.235 607.284 854.05 609.499C854.865 611.713 854.843 614.181 853.99 616.379C853.137 618.577 851.52 620.333 849.48 621.275H849.47Z" fill="#FF6F5C"/>
<path opacity="0.1" d="M838.34 656.428C834.34 659.053 818.17 658.828 818.17 658.828C818.17 658.828 825.44 643.385 829.48 640.759C830.441 640.101 831.514 639.656 832.638 639.449C833.761 639.242 834.912 639.279 836.022 639.556C837.132 639.832 838.18 640.344 839.103 641.062C840.026 641.779 840.805 642.686 841.396 643.731C841.987 644.776 842.377 645.937 842.543 647.146C842.709 648.354 842.648 649.586 842.363 650.769C842.078 651.952 841.576 653.062 840.885 654.034C840.194 655.006 839.329 655.82 838.34 656.428Z" fill="#FF6F5C"/>
<path opacity="0.1" d="M818.12 582.715C821.19 586.562 836.59 591.739 836.59 591.739C836.59 591.739 834.18 574.591 831.11 570.797C829.635 568.95 827.536 567.806 825.275 567.617C823.013 567.428 820.774 568.21 819.05 569.79C817.326 571.37 816.259 573.62 816.082 576.044C815.906 578.468 816.635 580.867 818.11 582.715H818.12Z" fill="#FF6F5C"/>
<path opacity="0.1" d="M805.59 624.03C809.59 626.709 825.73 626.72 825.73 626.72C825.73 626.72 818.65 611.18 814.65 608.5C812.728 607.259 810.428 606.878 808.246 607.438C806.064 607.997 804.175 609.454 802.986 611.493C801.797 613.533 801.404 615.991 801.891 618.338C802.378 620.685 803.707 622.733 805.59 624.04V624.03Z" fill="#FF6F5C"/>
<path opacity="0.1" d="M798.56 665.977C802.08 669.342 817.99 672.278 817.99 672.278C817.99 672.278 813.47 655.677 809.99 652.312C808.291 650.744 806.086 649.954 803.849 650.112C801.612 650.27 799.522 651.363 798.03 653.157C796.538 654.95 795.762 657.299 795.871 659.699C795.979 662.099 796.963 664.357 798.61 665.987L798.56 665.977Z" fill="#FF6F5C"/>
</g>
<g opacity="0.1">
<path opacity="0.1" d="M186.63 700.143C186.63 700.143 178.86 657.928 194.86 628.992C201.647 616.9 204.591 602.775 203.25 588.738C202.566 582.081 201.314 575.505 199.51 569.093" stroke="#535461" stroke-width="2" stroke-miterlimit="10"/>
<path opacity="0.1" d="M209.5 550.788C209.07 555.825 199.3 569.597 199.3 569.597C199.3 569.597 192.04 554.154 192.47 549.116C192.795 546.804 193.932 544.712 195.649 543.269C197.366 541.826 199.533 541.141 201.706 541.355C203.879 541.568 205.894 542.664 207.337 544.418C208.78 546.172 209.544 548.451 209.47 550.788H209.5Z" fill="#FF6F5C"/>
<path opacity="0.1" d="M221.17 580.078C218.25 584.054 203.07 589.927 203.07 589.927C203.07 589.927 204.81 572.78 207.73 568.761C209.155 566.933 211.189 565.771 213.4 565.522C215.611 565.274 217.826 565.959 219.574 567.431C221.322 568.903 222.467 571.047 222.765 573.408C223.062 575.769 222.491 578.162 221.17 580.078Z" fill="#FF6F5C"/>
<path opacity="0.1" d="M216.47 627.706C212.08 629.56 196.21 626.42 196.21 626.42C196.21 626.42 205.81 612.487 210.21 610.665C212.301 609.862 214.601 609.962 216.625 610.944C218.648 611.927 220.235 613.715 221.05 615.929C221.865 618.144 221.843 620.611 220.99 622.809C220.137 625.007 218.52 626.763 216.48 627.706H216.47Z" fill="#FF6F5C"/>
<path opacity="0.1" d="M205.34 662.858C201.34 665.484 185.17 665.259 185.17 665.259C185.17 665.259 192.44 649.815 196.48 647.189C197.441 646.532 198.514 646.086 199.638 645.879C200.761 645.673 201.912 645.709 203.022 645.986C204.132 646.263 205.18 646.775 206.103 647.492C207.026 648.209 207.805 649.117 208.396 650.161C208.987 651.206 209.377 652.367 209.543 653.576C209.709 654.785 209.648 656.017 209.363 657.2C209.078 658.383 208.576 659.493 207.885 660.464C207.194 661.436 206.329 662.25 205.34 662.858Z" fill="#FF6F5C"/>
<path opacity="0.1" d="M185.12 589.145C188.19 592.993 203.59 598.169 203.59 598.169C203.59 598.169 201.18 581.021 198.11 577.228C196.635 575.38 194.536 574.236 192.275 574.047C190.013 573.858 187.774 574.64 186.05 576.22C184.326 577.801 183.259 580.05 183.082 582.474C182.906 584.898 183.635 587.298 185.11 589.145H185.12Z" fill="#FF6F5C"/>
<path opacity="0.1" d="M172.59 630.46C176.59 633.139 192.73 633.15 192.73 633.15C192.73 633.15 185.65 617.61 181.65 614.931C179.728 613.69 177.428 613.308 175.246 613.868C173.064 614.428 171.175 615.884 169.986 617.924C168.797 619.963 168.404 622.421 168.891 624.768C169.378 627.116 170.707 629.164 172.59 630.471V630.46Z" fill="#FF6F5C"/>
<path opacity="0.1" d="M165.56 672.407C169.08 675.772 184.99 678.709 184.99 678.709C184.99 678.709 180.47 662.108 176.99 658.742C175.291 657.175 173.086 656.385 170.849 656.543C168.612 656.7 166.522 657.794 165.03 659.587C163.538 661.38 162.762 663.73 162.871 666.129C162.979 668.529 163.963 670.788 165.61 672.418L165.56 672.407Z" fill="#FF6F5C"/>
</g>
</g>
<defs>
<linearGradient id="paint0_linear" x1="544.35" y1="759.999" x2="544.35" y2="0.000633067" gradientUnits="userSpaceOnUse">
<stop stop-color="#808080" stop-opacity="0.25"/>
<stop offset="0.54" stop-color="#808080" stop-opacity="0.12"/>
<stop offset="1" stop-color="#808080" stop-opacity="0.1"/>
</linearGradient>
<clipPath id="clip0">
<rect width="1074" height="792" fill="white"/>
</clipPath>
</defs>
</svg>
